<?xml version="1.0" standalone="no"?>
<!DOCTYPE svg PUBLIC "-//W3C//DTD SVG 20010904//EN"
 "http://www.w3.org/TR/2001/REC-SVG-20010904/DTD/svg10.dtd">
<svg version="1.0" xmlns="http://www.w3.org/2000/svg"
 width="512.000000pt" height="512.000000pt" viewBox="0 0 512.000000 512.000000"
 preserveAspectRatio="xMidYMid meet">
<metadata>
Created by potrace 1.11, written by Peter Selinger 2001-2013
</metadata>
<g transform="translate(0.000000,512.000000) scale(0.100000,-0.100000)"
fill="#000000" stroke="none">
<path d="M2457 4974 c-1 -1 -22 -3 -47 -5 -25 -1 -49 -5 -54 -7 -5 -3 -27 -6
-50 -8 -22 -2 -51 -6 -63 -9 -13 -3 -31 -7 -41 -9 -9 -2 -37 -9 -62 -16 -25
-7 -51 -13 -57 -13 -7 0 -13 -3 -13 -6 0 -7 -91 -36 -102 -33 -5 1 -8 -2 -8
-8 0 -5 -5 -10 -11 -10 -20 0 -187 -88 -256 -136 -204 -139 -389 -337 -491
-524 -70 -128 -139 -290 -124 -290 4 0 2 -4 -5 -8 -11 -7 -16 -22 -28 -87 -7
-35 -13 -60 -15 -60 -1 0 -4 -13 -6 -30 -8 -47 -12 -70 -14 -70 -6 0 -11 -141
-13 -394 -2 -250 -4 -295 -17 -301 -8 -5 -35 -16 -60 -25 -137 -52 -267 -135
-384 -245 -44 -41 -152 -168 -183 -216 -7 -11 -26 -39 -43 -64 -16 -25 -30
-51 -30 -57 0 -7 -4 -13 -10 -13 -5 0 -10 -6 -10 -14 0 -7 -7 -19 -15 -26 -9
-7 -14 -15 -11 -17 2 -3 -10 -32 -26 -66 -17 -34 -31 -68 -31 -74 0 -7 -4 -13
-8 -13 -5 0 -11 -16 -15 -35 -3 -19 -11 -35 -16 -35 -6 0 -8 -7 -4 -15 3 -8 0
-15 -6 -15 -6 0 -9 -3 -5 -6 3 -3 -3 -28 -13 -55 -11 -27 -17 -49 -14 -49 4 0
1 -7 -6 -15 -7 -8 -9 -15 -5 -15 4 0 2 -7 -5 -15 -7 -8 -10 -15 -7 -15 3 0 -1
-23 -8 -52 -8 -28 -12 -55 -9 -60 3 -4 0 -8 -5 -8 -6 0 -10 -3 -9 -8 1 -4 -4
-38 -11 -77 -21 -116 -26 -174 -26 -310 0 -115 3 -135 23 -176 26 -54 96 -129
120 -129 5 0 24 -8 43 -17 45 -23 141 -20 199 5 107 46 170 134 176 247 7 124
28 204 81 314 35 71 136 172 205 204 78 36 92 41 146 50 9 1 23 6 29 10 7 5
13 7 14 5 5 -20 9 -54 13 -99 3 -29 5 -54 6 -54 1 0 4 -16 5 -35 9 -93 14
-145 16 -145 1 0 3 -9 4 -20 2 -11 6 -33 9 -50 7 -29 12 -59 20 -120 4 -27 32
-168 42 -205 2 -8 8 -35 15 -60 6 -25 12 -49 13 -55 1 -5 10 -37 20 -70 10
-33 20 -67 22 -75 25 -106 132 -314 185 -360 75 -65 88 -69 289 -74 96 -3 186
-8 200 -11 14 -3 45 -11 70 -17 25 -6 51 -15 58 -21 6 -5 12 -7 12 -3 0 9 78
-34 182 -101 54 -35 103 -63 111 -63 7 0 17 -4 23 -9 11 -10 66 -28 109 -36
17 -2 41 -7 55 -11 34 -8 310 -13 310 -5 0 3 17 7 38 8 20 0 48 4 62 7 14 3
34 8 45 10 55 12 159 70 217 122 15 13 30 24 33 24 3 0 15 9 27 20 93 86 343
112 518 53 39 -13 130 -65 130 -75 0 -4 7 -8 15 -8 8 0 15 -3 15 -7 0 -5 21
-21 48 -38 26 -16 49 -32 52 -35 11 -13 122 -58 160 -64 14 -3 25 -5 25 -6 0
-9 246 -20 260 -12 5 3 22 7 38 9 15 2 47 12 70 24 52 25 124 69 115 69 -4 0
9 17 28 37 37 38 90 139 98 183 2 14 5 27 6 30 5 12 5 95 0 100 -3 3 -13 30
-24 60 -10 30 -68 168 -128 305 -136 310 -130 297 -163 375 -15 36 -33 79 -40
95 -26 61 -50 119 -50 125 -1 3 -11 28 -24 55 -12 28 -24 60 -24 72 -1 13 -5
23 -8 23 -6 0 -35 75 -42 107 -2 7 -6 16 -10 19 -13 13 -8 66 6 61 6 -2 35 4
62 15 28 11 55 21 60 22 22 6 71 31 88 44 9 9 17 11 17 7 0 -4 9 0 20 10 11
10 20 15 20 11 0 -4 6 -1 14 6 8 7 34 29 58 48 104 84 211 213 249 297 7 18
17 33 20 33 4 0 10 11 13 25 4 14 17 49 30 78 95 211 143 535 142 952 -1 180
-2 192 -25 235 -69 129 -211 187 -351 142 -94 -30 -181 -142 -186 -241 -2 -25
-3 -46 -4 -46 -1 0 -3 -16 -5 -36 -1 -20 -6 -51 -11 -70 -4 -19 -8 -36 -8 -39
-2 -16 -61 -146 -68 -148 -4 -2 -8 -10 -8 -18 0 -29 -125 -142 -191 -173 -79
-36 -127 -52 -132 -43 -2 4 -3 25 -1 47 1 22 -2 43 -9 47 -7 5 -8 8 -2 8 17 0
10 372 -10 535 -2 17 -4 30 -5 30 -1 0 -3 14 -6 30 -5 36 -12 69 -14 73 -2 1
-3 5 -4 10 -7 34 -29 110 -37 124 -5 10 -9 26 -9 36 0 10 -5 23 -11 29 -6 6
-12 17 -14 24 -9 39 -18 59 -28 59 -6 0 -8 3 -4 6 9 10 -71 154 -143 256 -66
94 -212 249 -285 303 -22 17 -51 40 -63 51 -34 30 -174 112 -286 167 -40 19
-206 76 -206 71 0 -4 -6 -1 -14 5 -8 6 -18 11 -22 10 -5 -1 -12 0 -16 1 -5 1
-12 4 -18 5 -5 1 -11 3 -12 4 -3 3 -44 9 -93 15 -16 3 -30 5 -30 6 0 7 -321
20 -328 14z"/>
</g>
</svg>
